StemOutput.ufo
<glyph name="I.0050" format="1">
  <advance width="79"/>
  <outline>
    <contour>
      <point x="59" y="0" type="line"/>
      <point x="59" y="315" type="line"/>
      <point x="20" y="315" type="line"/>
      <point x="20" y="0" type="line"/>
    </contour>
  </outline>
</glyph>
<glyph name="I.0100" format="1">
  <advance width="42"/>
  <outline>
    <contour>
      <point x="22" y="0" type="line"/>
      <point x="22" y="709" type="line"/>
      <point x="20" y="709" type="line"/>
      <point x="20" y="0" type="line"/>
    </contour>
  </outline>
</glyph>
<glyph name="I.0150" format="1">
  <advance width="64"/>
  <outline>
    <contour>
      <point x="44" y="0" type="line"/>
      <point x="44" y="303" type="line"/>
      <point x="20" y="303" type="line"/>
      <point x="20" y="0" type="line"/>
    </contour>
  </outline>
</glyph>
<glyph name="I.0200" format="1">
  <advance width="143"/>
  <outline>
    <contour>
      <point x="123" y="0" type="line"/>
      <point x="123" y="709" type="line"/>
      <point x="20" y="709" type="line"/>
      <point x="20" y="0" type="line"/>
    </contour>
  </outline>
</glyph>
<glyph name="I.0250" format="1">
  <advance width="72"/>
  <outline>
    <contour>
      <point x="52" y="0" type="line"/>
      <point x="52" y="309" type="line"/>
      <point x="20" y="309" type="line"/>
      <point x="20" y="0" type="line"/>
    </contour>
  </outline>
</glyph>
<glyph name="I.0300" format="1">
  <advance width="46"/>
  <outline>
    <contour>
      <point x="26" y="0" type="line"/>
      <point x="26" y="709" type="line"/>
      <point x="20" y="709" type="line"/>
      <point x="20" y="0" type="line"/>
    </contour>
  </outline>
</glyph>
<glyph name="I.0350" format="1">
  <advance width="84"/>
  <outline>
    <contour>
      <point x="64" y="0" type="line"/>
      <point x="64" y="319" type="line"/>
      <point x="20" y="319" type="line"/>
      <point x="20" y="0" type="line"/>
    </contour>
  </outline>
</glyph>
<glyph name="I.0400" format="1">
  <advance width="48"/>
  <outline>
    <contour>
      <point x="28" y="0" type="line"/>
      <point x="28" y="709" type="line"/>
      <point x="20" y="709" type="line"/>
      <point x="20" y="0" type="line"/>
    </contour>
  </outline>
</glyph>
<glyph name="I.0450" format="1">
  <advance width="104"/>
  <outline>
    <contour>
      <point x="84" y="0" type="line"/>
      <point x="84" y="335" type="line"/>
      <point x="20" y="335" type="line"/>
      <point x="20" y="0" type="line"/>
    </contour>
  </outline>
</glyph>
<glyph name="I.0500" format="1">
  <advance width="50"/>
  <outline>
    <contour>
      <point x="30" y="0" type="line"/>
      <point x="30" y="709" type="line"/>
      <point x="20" y="709" type="line"/>
      <point x="20" y="0" type="line"/>
    </contour>
  </outline>
</glyph>
<glyph name="I.0550" format="1">
  <advance width="134"/>
  <outline>
    <contour>
      <point x="114" y="0" type="line"/>
      <point x="114" y="358" type="line"/>
      <point x="20" y="358" type="line"/>
      <point x="20" y="0" type="line"/>
    </contour>
  </outline>
</glyph>
<glyph name="I.0600" format="1">
  <advance width="152"/>
  <outline>
    <contour>
      <point x="132" y="0" type="line"/>
      <point x="132" y="373" type="line"/>
      <point x="20" y="373" type="line"/>
      <point x="20" y="0" type="line"/>
    </contour>
  </outline>
</glyph>
<glyph name="I.0650" format="1">
  <advance width="180"/>
  <outline>
    <contour>
      <point x="160" y="0" type="line"/>
      <point x="160" y="395" type="line"/>
      <point x="20" y="395" type="line"/>
      <point x="20" y="0" type="line"/>
    </contour>
  </outline>
</glyph>
<glyph name="I.0700" format="1">
  <advance width="355"/>
  <outline>
    <contour>
      <point x="335" y="0" type="line"/>
      <point x="335" y="709" type="line"/>
      <point x="20" y="709" type="line"/>
      <point x="20" y="0" type="line"/>
    </contour>
  </outline>
</glyph>
<glyph name="I.0750" format="1">
  <advance width="253"/>
  <outline>
    <contour>
      <point x="233" y="0" type="line"/>
      <point x="233" y="452" type="line"/>
      <point x="20" y="452" type="line"/>
      <point x="20" y="0" type="line"/>
    </contour>
  </outline>
</glyph>
<glyph name="I.0800" format="1">
  <advance width="650"/>
  <outline>
    <contour>
      <point x="630" y="0" type="line"/>
      <point x="630" y="709" type="line"/>
      <point x="20" y="709" type="line"/>
      <point x="20" y="0" type="line"/>
    </contour>
  </outline>
</glyph>
<glyph name="I.0850" format="1">
  <advance width="365"/>
  <outline>
    <contour>
      <point x="345" y="0" type="line"/>
      <point x="345" y="540" type="line"/>
      <point x="20" y="540" type="line"/>
      <point x="20" y="0" type="line"/>
    </contour>
  </outline>
</glyph>
<glyph name="I.0900" format="1">
  <advance width="850"/>
  <outline>
    <contour>
      <point x="830" y="0" type="line"/>
      <point x="830" y="709" type="line"/>
      <point x="20" y="709" type="line"/>
      <point x="20" y="0" type="line"/>
    </contour>
  </outline>
</glyph>
<glyph name="I.0950" format="1">
  <advance width="538"/>
  <outline>
    <contour>
      <point x="518" y="0" type="line"/>
      <point x="518" y="677" type="line"/>
      <point x="20" y="677" type="line"/>
      <point x="20" y="0" type="line"/>
    </contour>
  </outline>
</glyph>
<glyph name="I.1000" format="1">
  <advance width="1050"/>
  <outline>
    <contour>
      <point x="1030" y="0" type="line"/>
      <point x="1030" y="709" type="line"/>
      <point x="20" y="709" type="line"/>
      <point x="20" y="0" type="line"/>
    </contour>
  </outline>
</glyph>
